<?xml version="1.0" encoding="UTF-8"?>
<svg id="Layer_1" xmlns="http://www.w3.org/2000/svg" version="1.1" viewBox="0 0 510.6 131.4">
  <!-- Generator: Adobe Illustrator 29.4.0, SVG Export Plug-In . SVG Version: 2.1.0 Build 152)  -->
  <defs>
    <style>
      .st0 {
        fill: #fff;
      }
    </style>
  </defs>
  <polygon class="st0" points="31.6 107.7 31.6 125.8 110.8 125.8 110.8 107.7 51.2 107.7 31.6 107.7"/>
  <polygon class="st0" points="31.6 21.3 51.2 21.3 110.8 21.3 110.8 3.4 31.6 3.4 31.6 21.3"/>
  <polygon class="st0" points="120.3 21.3 120.3 107.7 120.3 125.8 140.4 125.8 140.4 107.7 140.4 21.3 140.4 3.4 120.3 3.4 120.3 21.3"/>
  <path class="st0" d="M197.7,33c-25.8,0-44.5,19.4-44.5,46.7s20.4,48.2,45.9,48.2,30.8-9.2,37.2-20.2c1.7-3,3.1-6,4-9.1h-19.7c-1.7,4-4.4,7-8,9.1-3.9,2.3-8.8,3.5-14.3,3.5s-8.7-1.2-12.5-3.5c-6.4-3.9-11.3-11.1-12.1-21.6h67.7c1.7-30.5-15.7-53.2-43.5-53.2h-.2ZM173.6,71.4c1.7-17.2,14.7-22.8,24.1-22.8s22.6,8.6,23.1,22.8h-47.2Z"/>
  <path class="st0" d="M278.2,21.3v-10.3h-20.1v24h-13.5v14.5h13.5v52.5c0,2.1,0,4,.2,5.7.9,13.9,5.9,18,23.1,18h14.9v-15.3h-7.3c-4.6,0-7.4-.7-9-2.7-1.3-1.8-1.8-4.5-1.8-8.8v-49.4h18.2v-14.5h-18.2v-13.7h0Z"/>
  <path class="st0" d="M335.6,21.3v-10.3h-20.1v24h-13.5v14.5h13.5v52.5c0,2.1,0,4,.2,5.7.9,13.9,5.9,18,23.1,18h14.9v-15.3h-7.3c-4.6,0-7.4-.7-9-2.7-1.3-1.8-1.8-4.5-1.8-8.8v-49.4h18.2v-14.5h-18.2v-13.7h0Z"/>
  <path class="st0" d="M389.7,51.2v-16.2h-19.7v90.8h20.1v-47.6c0-18.2,7.3-23.3,19.9-23.3s6.2.2,9.6.5v-20.2c-1.5-.2-3.7-.3-5.2-.3-11,.2-19.7,6.2-24.6,16.4h0Z"/>
  <path class="st0" d="M503,107.7c-.3-4.2-.4-8.6-.4-13,0-8.3.3-18.9.3-23.4.5-29-16.5-39-38.3-39s-37.3,12.6-38.6,31.2h19.7c.5-11,8.1-16.4,18.2-16.4s18.9,4.7,18.9,20.2v1.7c-33.2,3.4-61.1,9.1-61.1,31.7s.3,4.8.9,6.9c3.3,12.5,15.8,20.2,32.7,20.2s24.1-4.7,29.9-14.5c.3,6.2,1,8.4,1.7,12.3h18.4c-1-4.7-1.8-11.1-2.3-18.1h0v.2ZM459.7,112.9c-6.4,0-11.3-1.9-14.1-5.2-1.7-2-2.6-4.5-2.6-7.4,0-10.5,11.6-14.5,40.3-17.2v6.9c0,8-2.4,13.9-6.8,17.7-4,3.5-9.7,5.2-16.8,5.2h0Z"/>
  <polygon class="st0" points="31.6 102.2 54.2 102.2 54.2 75.8 80.6 75.8 80.6 53.2 54.2 53.2 54.2 26.9 31.6 26.9 31.6 53.2 5.3 53.2 5.3 75.8 31.6 75.8 31.6 102.2"/>
</svg>