<?xml version="1.0" encoding="UTF-8"?><svg id="a" xmlns="http://www.w3.org/2000/svg" viewBox="0 0 500 124.5"><path d="M192.4,45.2c-9.4,0-22.4,5.6-24.1,22.8h47.2c-.5-14.2-11.3-22.8-23.1-22.8h0Z" style="fill:none;"/><polygon points="26.3 104.3 26.3 122.3 105.5 122.3 105.5 104.3 45.9 104.3 26.3 104.3"/><polygon points="26.3 17.9 45.9 17.9 105.5 17.9 105.5 0 26.3 0 26.3 17.9"/><polygon points="115 17.9 115 104.3 115 122.3 135.1 122.3 135.1 104.3 135.1 17.9 135.1 0 115 0 115 17.9"/><path d="M192.4,29.5c-25.8,0-44.5,19.4-44.5,46.7s2.7,20,7.7,28c7.6,12.1,20.6,20.2,38.2,20.2s30.8-9.2,37.2-20.2c1.7-3,3.1-6,4-9.1h-19.7c-1.7,4-4.4,7-8,9.1-3.9,2.3-8.8,3.5-14.3,3.5s-8.7-1.2-12.5-3.5c-6.4-3.9-11.3-11.1-12.1-21.6h67.7c1.7-30.5-15.7-53.2-43.5-53.2h0ZM168.3,68c1.7-17.2,14.7-22.8,24.1-22.8s22.6,8.6,23.1,22.8h-47.2Z"/><path d="M272.9,17.9V7.6h-20.1v24h-13.5v14.5h13.5v52.5c0,2.1,0,4,.2,5.7.9,13.9,5.9,18,23.1,18h14.9v-15.3h-7.3c-4.6,0-7.4-.7-9-2.7-1.3-1.8-1.8-4.5-1.8-8.8v-49.4h18.2v-14.5h-18.2v-13.7h0Z"/><path d="M330.3,17.9V7.6h-20.1v24h-13.5v14.5h13.5v52.5c0,2.1,0,4,.2,5.7.9,13.9,5.9,18,23.1,18h14.9v-15.3h-7.3c-4.6,0-7.4-.7-9-2.7-1.3-1.8-1.8-4.5-1.8-8.8v-49.4h18.2v-14.5h-18.2v-13.7h0Z"/><path d="M384.4,47.7v-16.2h-19.7v90.8h20.1v-47.6c0-18.2,7.3-23.3,19.9-23.3s6.2.2,9.6.5v-20.2c-1.5-.2-3.7-.3-5.2-.3-11,.2-19.7,6.2-24.6,16.4h0Z"/><path d="M497.7,104.3c-.3-4.2-.4-8.6-.4-13,0-8.3.3-18.9.3-23.4.5-29-16.5-39-38.3-39s-37.3,12.6-38.6,31.2h19.7c.5-11,8.1-16.4,18.2-16.4s18.9,4.7,18.9,20.2v1.7c-33.2,3.4-61.1,9.1-61.1,31.7s.3,4.8.9,6.9c3.3,12.5,15.8,20.2,32.7,20.2s24.1-4.7,29.9-14.5c.3,6.2,1,8.4,1.7,12.3h18.4c-1-4.7-1.8-11.1-2.3-18.1h0ZM454.4,109.5c-6.4,0-11.3-1.9-14.1-5.2-1.7-2-2.6-4.5-2.6-7.4,0-10.5,11.6-14.5,40.3-17.2v6.9c0,8-2.4,13.9-6.8,17.7-4,3.5-9.7,5.2-16.8,5.2h0Z"/><polygon points="26.3 98.7 48.9 98.7 48.9 72.4 75.3 72.4 75.3 49.8 48.9 49.8 48.9 23.4 26.3 23.4 26.3 49.8 0 49.8 0 72.4 26.3 72.4 26.3 98.7"/></svg>